# xmcd CD database file
#
# Track frame offsets:
#	180
#	13511
#	30540
#	45693
#	59188
#	71636
#	89041
#	101049
#	116638
#	129163
#	142288
#	157885
#	171030
#	186385
#
# Disc length: 2688 seconds
#
# Revision: 2
# Processed by: cddbd v1.5PL3 Copyright (c) Steve Scherf et al.
# Submitted via: CdAid (MTCDDB.DLL V2003.12.21)
#
DISCID=cc0a7e0e
DTITLE=Tânia Alves - Amores E Boleros 2 
DYEAR=1996
DGENRE=Blues
TTITLE0=Faz-me Rir (Me Da Risa)
TTITLE1=Outra Vez
TTITLE2=Me Deixas Louca (Me Vuelves Loco)
TTITLE3=Sonhando Contigo
TTITLE4=Sabor D Mim  (Sabor a M )
TTITLE5=Castigo
TTITLE6=Meia-Volta (La Media Vuelta)
TTITLE7=Folhetim
TTITLE8=Sombras (Sombras Nada M s)
TTITLE9=Somos Iguais
TTITLE10=Ouça
TTITLE11=Fica Comigo Esta Noite
TTITLE12=Orgulho
TTITLE13=Lembran as
EXTD=ID3G:   0 YEAR: 1996
EXTT0=
EXTT1=
EXTT2=
EXTT3=
EXTT4=
EXTT5=
EXTT6=
EXTT7=
EXTT8=
EXTT9=
EXTT10=
EXTT11=
EXTT12=
EXTT13=
PLAYORDER=
